# xmcd CD database file
# Copyright (C) 1997 Ti Kan
# 
# Track frame offsets:
#     150
#     16407
#     25197
#     41075
#     57727
#     71015
#     83040
#     94767
#     107787
#     123002
#     135527
#     149642
#     165147
# 
# Disc length: 2458 seconds
# 
# Revision: 1
# Processed by: cddbd v1.4b41PL1 Copyright (c) Steve Scherf et al.
# Submitted via: DiscPlay 4.0.4
# 
DISCID=ad09980d
DTITLE=Jonathan Edwards And The Seldom Scene - Blue Ridge
DYEAR=1900
DGENRE=
TTITLE0=Don't This Road Look Rough And Rocky
TTITLE1=How Long Have I Been Waiting For You
TTITLE2=Blue Ridge
TTITLE3=Seven Daffodils
TTITLE4=Sunshine
TTITLE5=Back To Where I Don't Belong
TTITLE6=If I Gave You
TTITLE7=Honey, I Won't Be Around
TTITLE8=Only A Hobo
TTITLE9=God Gave You To Me
TTITLE10=Little Hands
TTITLE11=I Don't Believe I'll Stay Here Anymore
TTITLE12=Don't Crawfish Me, Baby
EXTD=
EXTT0=
EXTT1=
EXTT2=
EXTT3=
EXTT4=
EXTT5=
EXTT6=
EXTT7=
EXTT8=
EXTT9=
EXTT10=
EXTT11=
EXTT12=
PLAYORDER=
